<?xml version="1.0" encoding="utf-8"?>
<!-- Generator: Adobe Illustrator 24.1.2, SVG Export Plug-In . SVG Version: 6.00 Build 0)  -->
<svg version="1.1" id="Layer_1" xmlns="http://www.w3.org/2000/svg" xmlns:xlink="http://www.w3.org/1999/xlink" x="0px" y="0px"
	 viewBox="0 0 481 359" style="enable-background:new 0 0 481 359;" xml:space="preserve">
<style type="text/css">
	.st0{fill:url(#SVGID_1_);}
	.st1{fill:url(#SVGID_2_);}
	.st2{fill:url(#SVGID_3_);}
	.st3{fill:url(#SVGID_4_);}
	.st4{fill:url(#SVGID_5_);}
	.st5{fill:url(#SVGID_6_);}
	.st6{fill:url(#SVGID_7_);}
	.st7{fill:url(#SVGID_8_);}
</style>
<linearGradient id="SVGID_1_" gradientUnits="userSpaceOnUse" x1="2714.7271" y1="1901.36" x2="3068.4097" y2="1901.36">
	<stop  offset="0" style="stop-color:#EC1F28"/>
	<stop  offset="1" style="stop-color:#A81E23"/>
</linearGradient>
<path class="st0" d="M3035.91,1953.86c-15.16,0-27.93,10.44-31.5,24.5h-19.89l-46-46h-32.61v-23h51.5
	c1.33,5.26,3.97,10.14,7.75,14.18c6.13,6.56,14.78,10.32,23.75,10.32c17.92,0,32.5-14.58,32.5-32.5s-14.58-32.5-32.5-32.5
	c-15.52,0-28.52,10.93-31.73,25.5h-51.27v-25h32.65l46-47h19.61c1.24,5.64,3.96,10.88,7.98,15.18c6.13,6.56,14.78,10.32,23.75,10.32
	c17.92,0,32.5-14.58,32.5-32.5s-14.58-32.5-32.5-32.5c-15.16,0-27.93,10.44-31.5,24.5h-26.15l-46,47h-26.35v-46h31.61l38.73-38.73
	c5.22,3.37,11.36,5.23,17.66,5.23c17.92,0,32.5-14.58,32.5-32.5s-14.58-32.5-32.5-32.5s-32.5,14.58-32.5,32.5
	c0,5.84,1.56,11.49,4.46,16.43l-34.57,34.57h-25.39v-31.5c0-12.97-11.91-36.66-31.31-45.79c-0.13-0.06-0.25-0.11-0.38-0.17
	c-23.81-9.64-41.42-5.1-52.01,0.41c-14.77,7.69-23.86,21.3-26.09,30.75c-4.97,19.3-3.04,35.92,5.75,49.38
	c2.78,4.26,6.05,7.88,9.53,10.95c-2.51,1.02-4.9,2.29-7.15,3.81c-9.35,6.33-14.4,16.01-13.84,26.54
	c1.25,23.83,23.19,31.41,24.12,31.72c3.93,1.31,8.18-0.81,9.49-4.74c1.31-3.93-0.81-8.18-4.74-9.49
	c-0.13-0.04-13.16-4.54-13.88-18.28c-0.28-5.23,2.31-9.97,7.27-13.34c4.31-2.92,11.04-4.94,19.15-3.95c7.56,3.01,13.35,4,13.88,4.08
	c3.7,0.6,7.28-1.62,8.37-5.21c1.1-3.59-0.62-7.43-4.03-9c-4.71-2.17-9.49-3.66-14.23-4.46c-7.16-3.06-15.85-8.3-21.44-16.92
	c-6.36-9.79-7.61-22.39-3.71-37.43c0.02-0.06,0.03-0.13,0.05-0.19c1.15-4.98,7.17-15.07,18.42-20.92
	c11.27-5.86,24.48-5.83,39.26,0.11c13.97,6.69,22.51,24.57,22.51,32.13v0.5c0,8.27-6.73,15-15,15c-5.6,0-10.69-3.08-13.29-8.04
	c-1.92-3.67-6.46-5.08-10.13-3.15c-3.67,1.93-5.08,6.46-3.15,10.13c5.2,9.91,15.39,16.07,26.58,16.07c5.46,0,10.58-1.47,15-4.04
	v79.89c-11.06-3.24-25.45-3.44-35.64,8.21c-2.77,3.16-5.8,7.07-9.02,11.2c-6.12,7.88-13.28,17.07-21.6,25.17
	c-7.48-7.84-21.95-20.95-41.41-28.88c-3.83-1.56-8.21,0.28-9.78,4.12c-1.56,3.84,0.28,8.21,4.12,9.78
	c16.36,6.66,28.91,17.85,35.58,24.71c-7.12,5.09-14.95,8.94-23.55,10.46c-4.08,0.72-6.8,4.61-6.08,8.69c0.64,3.64,3.81,6.2,7.38,6.2
	c0.43,0,0.87-0.04,1.31-0.12c13.14-2.32,24.58-8.74,34.47-16.74c0.81-0.26,1.6-0.65,2.31-1.21c0.91-0.71,1.61-1.58,2.1-2.55
	c10.99-9.83,19.9-21.29,27-30.41c3.21-4.13,5.98-7.7,8.46-10.53c7.11-8.13,18.53-4.7,24.36-2.15v131.49
	c-3.2-1.45-6.76-2.27-10.5-2.27c-11.9,0-22.38,8.43-24.91,20.05c-0.88,4.05,1.68,8.04,5.73,8.93c4.05,0.88,8.04-1.68,8.93-5.73
	c1.04-4.78,5.36-8.25,10.26-8.25c5.79,0,10.5,4.71,10.5,10.5c0,6.56-3.49,19.64-13.11,28.76c-7.47,7.09-17.23,10.36-28.99,9.75
	c-14.26-0.75-26.02-7.49-33.09-18.99c-6.75-10.97-8.1-24.9-3.44-35.5c9.98-22.68,34.08-40.61,34.56-40.96
	c3.34-2.44,4.07-7.14,1.63-10.48c-2.45-3.34-7.14-4.07-10.48-1.63c-0.58,0.42-7.89,5.83-16.45,14.58l-22.74-7.63
	c-3.93-1.32-8.18,0.8-9.5,4.72c-1.32,3.93,0.8,8.18,4.72,9.5l16.82,5.64c-4.67,6.05-9.06,12.87-12.3,20.22
	c-1.6,3.63-2.71,7.48-3.36,11.44c-12.33-0.7-21.61-4.87-28.24-12.69c-17.96-21.18-10.26-61.88-10.18-62.28
	c0.47-2.4-0.25-4.87-1.94-6.64c-18.15-18.99-26.53-38.33-24.9-57.48c2.63-30.96,30.65-52.1,30.93-52.3
	c2.54-1.87,3.64-5.12,2.75-8.14c-11.67-40,8.57-48.54,9.44-48.88l-0.11,0.04l-5.04-14.13c-0.97,0.35-9.66,3.69-16.11,14.12
	c-7.53,12.19-8.83,28.39-3.88,48.22c-9.08,7.92-30.28,29.45-32.91,59.65c-1.97,22.7,6.91,45.05,26.42,66.49
	c-1.72,11.96-5.04,48.4,14.06,70.97c9.43,11.14,22.68,17.18,39.44,18.03c0.96,7.95,3.65,15.86,8.02,22.97
	c9.74,15.82,25.75,25.09,45.08,26.1c1.18,0.06,2.34,0.09,3.49,0.09c14.36,0,26.97-4.78,36.61-13.94
	c12.22-11.6,17.79-28.68,17.79-39.65v-30.5h26.34l34.05,34.88c-3.1,4.98-4.89,10.84-4.89,17.12c0,8.27,3.11,16.14,8.75,22.18
	c6.13,6.56,14.78,10.32,23.75,10.32c17.92,0,32.5-14.58,32.5-32.5c0-17.92-14.58-32.5-32.5-32.5c-6.22,0-12.03,1.76-16.98,4.8
	l-38.36-39.3h-32.66v-46h26.39l46,46h25.87c1.24,5.64,3.96,10.88,7.98,15.18c6.13,6.56,14.78,10.32,23.75,10.32
	c17.92,0,32.5-14.58,32.5-32.5S3053.83,1953.86,3035.91,1953.86z M2988.91,1883.86c9.65,0,17.5,7.85,17.5,17.5s-7.85,17.5-17.5,17.5
	c-4.9,0-9.44-1.97-12.79-5.56c-3.04-3.25-4.71-7.49-4.71-11.94C2971.41,1891.71,2979.26,1883.86,2988.91,1883.86z M3035.91,1797.86
	c9.65,0,17.5,7.85,17.5,17.5s-7.85,17.5-17.5,17.5c-4.9,0-9.44-1.97-12.79-5.56c-3.04-3.25-4.71-7.49-4.71-11.94
	C3018.41,1805.71,3026.26,1797.86,3035.91,1797.86z M2993.91,1724.86c9.65,0,17.5,7.85,17.5,17.5s-7.85,17.5-17.5,17.5
	c-4.9,0-9.44-1.97-12.79-5.56c-3.04-3.25-4.71-7.49-4.71-11.94C2976.41,1732.71,2984.26,1724.86,2993.91,1724.86z M3011.41,2060.36
	c0,9.65-7.85,17.5-17.5,17.5c-4.9,0-9.44-1.97-12.79-5.56c-3.04-3.25-4.71-7.49-4.71-11.94c0-9.65,7.85-17.5,17.5-17.5
	S3011.41,2050.71,3011.41,2060.36z M3035.91,2003.86c-4.9,0-9.44-1.97-12.79-5.56c-3.04-3.25-4.71-7.49-4.71-11.94
	c0-9.65,7.85-17.5,17.5-17.5s17.5,7.85,17.5,17.5S3045.56,2003.86,3035.91,2003.86z"/>
<g>
	<linearGradient id="SVGID_2_" gradientUnits="userSpaceOnUse" x1="48.4101" y1="121.4614" x2="200.2466" y2="121.4614">
		<stop  offset="0" style="stop-color:#EC1F28"/>
		<stop  offset="1" style="stop-color:#A81E23"/>
	</linearGradient>
	<path class="st1" d="M199.97,102.52c0-0.01,0.01-0.02,0.01-0.04c0.01-0.04,0.01-0.09,0.03-0.13c0.07-0.28,0.12-0.56,0.16-0.83
		c0.01-0.08,0.02-0.17,0.03-0.25c0.03-0.33,0.05-0.66,0.04-0.98c0-0.01,0-0.03,0-0.04c-0.01-0.32-0.05-0.63-0.1-0.94
		c-0.01-0.07-0.02-0.14-0.04-0.21c-0.06-0.32-0.14-0.64-0.24-0.95c-0.01-0.02-0.01-0.03-0.02-0.05c-0.1-0.29-0.22-0.57-0.35-0.85
		c-0.03-0.07-0.07-0.14-0.1-0.21c-0.15-0.29-0.31-0.56-0.49-0.83c-0.02-0.03-0.04-0.05-0.06-0.07c-0.18-0.25-0.38-0.49-0.58-0.72
		c-0.04-0.05-0.08-0.09-0.13-0.14c-0.24-0.25-0.49-0.48-0.76-0.69c-0.01,0-0.01-0.01-0.02-0.01L144.85,53.6
		c-1.57-1.23-3.58-1.78-5.55-1.53L76.51,60c-0.02,0-0.04,0.01-0.06,0.01l0,0c0,0,0,0,0,0c-0.33,0.04-0.66,0.11-0.98,0.2
		c-0.07,0.02-0.14,0.04-0.21,0.06c-0.31,0.09-0.61,0.2-0.91,0.33c-0.05,0.02-0.1,0.05-0.14,0.07c-0.25,0.12-0.49,0.25-0.73,0.4
		c-0.07,0.04-0.14,0.08-0.2,0.12c-0.27,0.17-0.52,0.36-0.77,0.57c-0.03,0.03-0.07,0.06-0.1,0.09c-0.22,0.19-0.43,0.4-0.62,0.62
		c-0.04,0.04-0.08,0.09-0.12,0.13c-0.21,0.25-0.41,0.52-0.6,0.8c-0.02,0.03-0.03,0.06-0.05,0.08c-0.16,0.26-0.3,0.52-0.43,0.8
		c-0.03,0.06-0.06,0.13-0.09,0.19c-0.12,0.29-0.24,0.59-0.33,0.9L48.7,140.37c-0.84,2.94,0.19,6.1,2.6,7.98l52.51,40.98
		c1.32,1.03,2.95,1.59,4.61,1.59c0.31,0,0.63-0.02,0.94-0.06l62.85-7.94c2.98-0.38,5.44-2.49,6.27-5.38l21.47-74.99
		C199.96,102.54,199.96,102.53,199.97,102.52z M138.08,67.34l35.83,27.96l-41.87,5.29L96.22,72.63L138.08,67.34z M104.47,170.82
		l-39.96-31.18L81.53,80.2l39.96,31.18L104.47,170.82z M165.42,168.65l-46.41,5.86l16.98-59.3l46.41-5.86L165.42,168.65z"/>
	<linearGradient id="SVGID_3_" gradientUnits="userSpaceOnUse" x1="120.294" y1="17.8351" x2="180.4793" y2="17.8351">
		<stop  offset="0" style="stop-color:#EC1F28"/>
		<stop  offset="1" style="stop-color:#A81E23"/>
	</linearGradient>
	<path class="st2" d="M129.74,22.16l22.13-5.94l15.63,16.75c1.48,1.58,3.48,2.38,5.48,2.38c1.83,0,3.67-0.67,5.12-2.02
		c3.03-2.83,3.19-7.57,0.37-10.6L159.76,2.7c-1.89-2.03-4.75-2.85-7.43-2.13l-26.48,7.1c-4,1.07-6.37,5.19-5.3,9.19
		C121.63,20.86,125.74,23.24,129.74,22.16z"/>
	<linearGradient id="SVGID_4_" gradientUnits="userSpaceOnUse" x1="68.009" y1="222.0419" x2="128.1946" y2="222.0419">
		<stop  offset="0" style="stop-color:#EC1F28"/>
		<stop  offset="1" style="stop-color:#A81E23"/>
	</linearGradient>
	<path class="st3" d="M118.75,217.72l-22.13,5.94L80.99,206.9c-2.83-3.03-7.57-3.19-10.6-0.37c-3.03,2.83-3.19,7.57-0.37,10.6
		l18.71,20.04c1.44,1.54,3.43,2.38,5.48,2.38c0.65,0,1.3-0.08,1.94-0.26l26.48-7.1c4-1.07,6.37-5.19,5.3-9.19
		C126.86,219.02,122.75,216.65,118.75,217.72z"/>
	<linearGradient id="SVGID_5_" gradientUnits="userSpaceOnUse" x1="0.9791" y1="93.7944" x2="36.0223" y2="93.7944">
		<stop  offset="0" style="stop-color:#EC1F28"/>
		<stop  offset="1" style="stop-color:#A81E23"/>
	</linearGradient>
	<path class="st4" d="M23.41,65.72L3.36,84.42c-2.03,1.89-2.85,4.75-2.13,7.43l7.1,26.48c0.9,3.35,3.93,5.56,7.24,5.56
		c0.64,0,1.3-0.08,1.95-0.26c4-1.07,6.37-5.19,5.3-9.19l-5.94-22.13l16.75-15.63c3.03-2.83,3.19-7.57,0.37-10.6
		C31.18,63.06,26.43,62.89,23.41,65.72z"/>
	<linearGradient id="SVGID_6_" gradientUnits="userSpaceOnUse" x1="189.5075" y1="205.4709" x2="480.7437" y2="205.4709">
		<stop  offset="0" style="stop-color:#EC1F28"/>
		<stop  offset="1" style="stop-color:#A81E23"/>
	</linearGradient>
	<path class="st5" d="M477.72,206.57c-1.48-2.67-3.43-4.98-5.72-6.87c7.06-62.94-35.42-123.53-100.52-142.17
		c-25.4-7.28-52.03-7.54-77-0.76c-24.39,6.62-46.06,19.59-62.68,37.5c-2.6,2.8-2.68,7.11-0.18,10l6.51,7.55
		c-6.01,1.87-11,6.62-12.86,13.11l-13.26,46.31c-0.55,1.92-0.31,3.99,0.67,5.73c0.26,0.47,0.58,0.9,0.93,1.3L191.5,202.2
		c-1.63,1.76-2.31,4.19-1.85,6.54s2.02,4.34,4.19,5.35l20.31,9.45l-7.11,37.12c-3.63,4.17-11.45,14.66-10.56,26.74
		c0.4,5.37,2.77,13.18,11.8,19.88c11.58,8.58,30.96,10.65,47,10.65c1.99,0,3.93-0.03,5.8-0.09c1.06-0.03,2.13-0.07,3.21-0.12
		l0.41,33.93c0.05,4.11,3.4,7.41,7.5,7.41c0.03,0,0.06,0,0.09,0c4.14-0.05,7.46-3.45,7.41-7.59l-0.42-34.99
		c10.55-1.27,20.06-3.34,24.14-6.03c8.22-5.42,31.79-33.75,36.43-39.38c2.64-3.19,2.18-7.92-1.01-10.56
		c-3.19-2.64-7.92-2.18-10.56,1.01c-10.91,13.21-28.32,33.17-33.07,36.37c-7.33,4-60.72,10.14-78-2.67
		c-3.63-2.69-5.52-5.6-5.77-8.89c-0.52-6.76,5.51-14.48,7.87-16.86c1.06-1.06,1.78-2.42,2.07-3.9l1.23-6.44
		c4.46,2.11,10.07,3.91,16.21,3.91c1.16,0,2.34-0.06,3.54-0.2c4.11-0.48,7.06-4.2,6.58-8.32c-0.48-4.11-4.2-7.06-8.32-6.58
		c-5.88,0.68-11.59-2.07-15.06-4.23l2.61-13.65l0.55,0.26c1.02,0.48,2.1,0.7,3.16,0.7c2.83,0,5.53-1.61,6.8-4.34
		c1.75-3.76,0.12-8.22-3.64-9.96l-25.56-11.89l17.17-18.58c4.88,4.37,10.19,11.81,11.95,24.1c-0.41,3.58,1.81,7.04,5.39,8.06
		l0.19,0.06c0.01,0,0.02,0.01,0.03,0.01l41.75,11.96c0.03,0.01,0.07,0.02,0.11,0.03l31.72,9.08c4.34,1.24,8.76,1.86,13.15,1.86
		c7.96,0,15.82-2.02,22.97-5.98c7.27-4.03,13.22-9.77,17.44-16.68l72.28,20.7c-14.05,24.73-37.42,43.19-65.9,52.06
		c0.21-10.23,1.32-17.17,1.35-17.34c0.68-4.08-2.08-7.94-6.16-8.63c-4.08-0.68-7.95,2.07-8.63,6.16
		c-0.32,1.89-7.51,46.58,11.03,81.54c1.35,2.54,3.95,3.99,6.63,3.99c1.19,0,2.39-0.28,3.51-0.88c3.66-1.94,5.05-6.48,3.11-10.14
		c-6.59-12.43-9.39-26.68-10.39-39.2c35.76-9.97,64.88-33.27,81.06-64.91c3.17-0.33,6.27-1.29,9.13-2.88
		c5.61-3.11,9.67-8.22,11.43-14.38C481.57,218.66,480.83,212.18,477.72,206.57z M290.2,216.03L253,205.38
		c-3.77-20.39-15.34-30.67-23.43-35.5c-0.03-0.02-0.06-0.04-0.09-0.05c-0.43-0.25-0.85-0.5-1.26-0.72l11.47-40.05
		c0.65-2.28,3.03-3.6,5.31-2.95l15.37,4.4c0.02,0,0.03,0.01,0.05,0.01l77.97,22.33c1.2,0.36,2.2,1.13,2.8,2.18
		c0.33,0.58,0.83,1.76,0.41,3.2l-10.24,35.77C326.43,211.21,307.98,221.07,290.2,216.03z M372.36,167.05l-10.24,35.77
		c-2.39,8.35-7.89,15.26-15.48,19.47c-6.89,3.82-14.75,5-22.39,3.4c10.15-5.93,18.08-15.52,21.52-27.55l10.24-35.77
		c0.4-1.41,0.64-2.83,0.72-4.26l12.68,3.63C371.69,162.4,373.01,164.78,372.36,167.05z M342.56,138.45
		c-0.03-0.01-0.06-0.02-0.09-0.03L260.67,115L247.5,99.72c30.55-29.18,76.82-40.09,119.85-27.76
		c56.48,16.17,93.92,67.45,90.16,121.52l-71.27-20.41l0.54-1.88c1.42-4.95,0.82-10.16-1.68-14.67c-2.5-4.51-6.61-7.77-11.56-9.19
		L342.56,138.45z M465.39,220.69c-0.66,2.31-2.18,4.23-4.29,5.39c-2.1,1.17-4.53,1.44-6.84,0.78l-76.62-21.94l4.96-17.3l76.62,21.94
		c2.31,0.66,4.23,2.18,5.39,4.29C465.77,215.95,466.05,218.38,465.39,220.69z"/>
	<linearGradient id="SVGID_7_" gradientUnits="userSpaceOnUse" x1="292.1254" y1="205.9404" x2="304.1285" y2="205.9404">
		<stop  offset="0" style="stop-color:#EC1F28"/>
		<stop  offset="1" style="stop-color:#A81E23"/>
	</linearGradient>
	<circle class="st6" cx="298.13" cy="205.94" r="6"/>
	<linearGradient id="SVGID_8_" gradientUnits="userSpaceOnUse" x1="266.2848" y1="198.6809" x2="278.2879" y2="198.6809">
		<stop  offset="0" style="stop-color:#EC1F28"/>
		<stop  offset="1" style="stop-color:#A81E23"/>
	</linearGradient>
	<path class="st7" d="M273.94,192.91c-3.19-0.91-6.51,0.93-7.42,4.12c-0.91,3.19,0.93,6.51,4.12,7.42c3.19,0.91,6.51-0.93,7.42-4.12
		C278.97,197.15,277.12,193.83,273.94,192.91z"/>
</g>
</svg>
