<?xml version="1.0" encoding="utf-8"?>
<!-- Generator: Adobe Illustrator 24.1.2, SVG Export Plug-In . SVG Version: 6.00 Build 0)  -->
<svg version="1.1" id="Layer_1" xmlns="http://www.w3.org/2000/svg" xmlns:xlink="http://www.w3.org/1999/xlink" x="0px" y="0px"
	 viewBox="0 0 355 383" style="enable-background:new 0 0 355 383;" xml:space="preserve">
<style type="text/css">
	.st0{fill:url(#SVGID_1_);}
	.st1{fill:url(#SVGID_2_);}
</style>
<linearGradient id="SVGID_1_" gradientUnits="userSpaceOnUse" x1="2588.7271" y1="1893.36" x2="2942.4097" y2="1893.36">
	<stop  offset="0" style="stop-color:#EC1F28"/>
	<stop  offset="1" style="stop-color:#A81E23"/>
</linearGradient>
<path class="st0" d="M2909.91,1945.86c-15.16,0-27.93,10.44-31.5,24.5h-19.89l-46-46h-32.61v-23h51.5
	c1.33,5.26,3.97,10.14,7.75,14.18c6.13,6.56,14.78,10.32,23.75,10.32c17.92,0,32.5-14.58,32.5-32.5s-14.58-32.5-32.5-32.5
	c-15.52,0-28.52,10.93-31.73,25.5h-51.27v-25h32.65l46-47h19.61c1.24,5.64,3.96,10.88,7.98,15.18c6.13,6.56,14.78,10.32,23.75,10.32
	c17.92,0,32.5-14.58,32.5-32.5s-14.58-32.5-32.5-32.5c-15.16,0-27.93,10.44-31.5,24.5h-26.15l-46,47h-26.35v-46h31.61l38.73-38.73
	c5.22,3.37,11.36,5.23,17.66,5.23c17.92,0,32.5-14.58,32.5-32.5s-14.58-32.5-32.5-32.5s-32.5,14.58-32.5,32.5
	c0,5.84,1.56,11.49,4.46,16.43l-34.57,34.57h-25.39v-31.5c0-12.97-11.91-36.66-31.31-45.79c-0.13-0.06-0.25-0.11-0.38-0.17
	c-23.81-9.64-41.42-5.1-52.01,0.41c-14.77,7.69-23.86,21.3-26.09,30.75c-4.97,19.3-3.04,35.92,5.75,49.38
	c2.78,4.26,6.05,7.88,9.53,10.95c-2.51,1.02-4.9,2.29-7.15,3.81c-9.35,6.33-14.4,16.01-13.84,26.54
	c1.25,23.83,23.19,31.41,24.12,31.72c3.93,1.31,8.18-0.81,9.49-4.74c1.31-3.93-0.81-8.18-4.74-9.49
	c-0.13-0.04-13.16-4.54-13.88-18.28c-0.28-5.23,2.31-9.97,7.27-13.34c4.31-2.92,11.04-4.94,19.15-3.95c7.56,3.01,13.35,4,13.88,4.08
	c3.7,0.6,7.28-1.62,8.37-5.21c1.1-3.59-0.62-7.43-4.03-9c-4.71-2.17-9.49-3.66-14.23-4.46c-7.16-3.06-15.85-8.3-21.44-16.92
	c-6.36-9.79-7.61-22.39-3.71-37.43c0.02-0.06,0.03-0.13,0.05-0.19c1.15-4.98,7.17-15.07,18.42-20.92
	c11.27-5.86,24.48-5.83,39.26,0.11c13.97,6.69,22.51,24.57,22.51,32.13v0.5c0,8.27-6.73,15-15,15c-5.6,0-10.69-3.08-13.29-8.04
	c-1.92-3.67-6.46-5.08-10.13-3.15c-3.67,1.93-5.08,6.46-3.15,10.13c5.2,9.91,15.39,16.07,26.58,16.07c5.46,0,10.58-1.47,15-4.04
	v79.89c-11.06-3.24-25.45-3.44-35.64,8.21c-2.77,3.16-5.8,7.07-9.02,11.2c-6.12,7.88-13.28,17.07-21.6,25.17
	c-7.48-7.84-21.95-20.95-41.41-28.88c-3.83-1.56-8.21,0.28-9.78,4.12c-1.56,3.84,0.28,8.21,4.12,9.78
	c16.36,6.66,28.91,17.85,35.58,24.71c-7.12,5.09-14.95,8.94-23.55,10.46c-4.08,0.72-6.8,4.61-6.08,8.69c0.64,3.64,3.81,6.2,7.38,6.2
	c0.43,0,0.87-0.04,1.31-0.12c13.14-2.32,24.58-8.74,34.47-16.74c0.81-0.26,1.6-0.65,2.31-1.21c0.91-0.71,1.61-1.58,2.1-2.55
	c10.99-9.83,19.9-21.29,27-30.41c3.21-4.13,5.98-7.7,8.46-10.53c7.11-8.13,18.53-4.7,24.36-2.15v131.49
	c-3.2-1.45-6.76-2.27-10.5-2.27c-11.9,0-22.38,8.43-24.91,20.05c-0.88,4.05,1.68,8.04,5.73,8.93c4.05,0.88,8.04-1.68,8.93-5.73
	c1.04-4.78,5.36-8.25,10.26-8.25c5.79,0,10.5,4.71,10.5,10.5c0,6.56-3.49,19.64-13.11,28.76c-7.47,7.09-17.23,10.36-28.99,9.75
	c-14.26-0.75-26.02-7.49-33.09-18.99c-6.75-10.97-8.1-24.9-3.44-35.5c9.98-22.68,34.08-40.61,34.56-40.96
	c3.34-2.44,4.07-7.14,1.63-10.48c-2.45-3.34-7.14-4.07-10.48-1.63c-0.58,0.42-7.89,5.83-16.45,14.58l-22.74-7.63
	c-3.93-1.32-8.18,0.8-9.5,4.72c-1.32,3.93,0.8,8.18,4.72,9.5l16.82,5.64c-4.67,6.05-9.06,12.87-12.3,20.22
	c-1.6,3.63-2.71,7.48-3.36,11.44c-12.33-0.7-21.61-4.87-28.24-12.69c-17.96-21.18-10.26-61.88-10.18-62.28
	c0.47-2.4-0.25-4.87-1.94-6.64c-18.15-18.99-26.53-38.33-24.9-57.48c2.63-30.96,30.65-52.1,30.93-52.3
	c2.54-1.87,3.64-5.12,2.75-8.14c-11.67-40,8.57-48.54,9.44-48.88l-0.11,0.04l-5.04-14.13c-0.97,0.35-9.66,3.69-16.11,14.12
	c-7.53,12.19-8.83,28.39-3.88,48.22c-9.08,7.92-30.28,29.45-32.91,59.65c-1.97,22.7,6.91,45.05,26.42,66.49
	c-1.72,11.96-5.04,48.4,14.06,70.97c9.43,11.14,22.68,17.18,39.44,18.03c0.96,7.95,3.65,15.86,8.02,22.97
	c9.74,15.82,25.75,25.09,45.08,26.1c1.18,0.06,2.34,0.09,3.49,0.09c14.36,0,26.97-4.78,36.61-13.94
	c12.22-11.6,17.79-28.68,17.79-39.65v-30.5h26.34l34.05,34.88c-3.1,4.98-4.89,10.84-4.89,17.12c0,8.27,3.11,16.14,8.75,22.18
	c6.13,6.56,14.78,10.32,23.75,10.32c17.92,0,32.5-14.58,32.5-32.5c0-17.92-14.58-32.5-32.5-32.5c-6.22,0-12.03,1.76-16.98,4.8
	l-38.36-39.3h-32.66v-46h26.39l46,46h25.87c1.24,5.64,3.96,10.88,7.98,15.18c6.13,6.56,14.78,10.32,23.75,10.32
	c17.92,0,32.5-14.58,32.5-32.5S2927.83,1945.86,2909.91,1945.86z M2862.91,1875.86c9.65,0,17.5,7.85,17.5,17.5s-7.85,17.5-17.5,17.5
	c-4.9,0-9.44-1.97-12.79-5.56c-3.04-3.25-4.71-7.49-4.71-11.94C2845.41,1883.71,2853.26,1875.86,2862.91,1875.86z M2909.91,1789.86
	c9.65,0,17.5,7.85,17.5,17.5s-7.85,17.5-17.5,17.5c-4.9,0-9.44-1.97-12.79-5.56c-3.04-3.25-4.71-7.49-4.71-11.94
	C2892.41,1797.71,2900.26,1789.86,2909.91,1789.86z M2867.91,1716.86c9.65,0,17.5,7.85,17.5,17.5s-7.85,17.5-17.5,17.5
	c-4.9,0-9.44-1.97-12.79-5.56c-3.04-3.25-4.71-7.49-4.71-11.94C2850.41,1724.71,2858.26,1716.86,2867.91,1716.86z M2885.41,2052.36
	c0,9.65-7.85,17.5-17.5,17.5c-4.9,0-9.44-1.97-12.79-5.56c-3.04-3.25-4.71-7.49-4.71-11.94c0-9.65,7.85-17.5,17.5-17.5
	S2885.41,2042.71,2885.41,2052.36z M2909.91,1995.86c-4.9,0-9.44-1.97-12.79-5.56c-3.04-3.25-4.71-7.49-4.71-11.94
	c0-9.65,7.85-17.5,17.5-17.5s17.5,7.85,17.5,17.5S2919.56,1995.86,2909.91,1995.86z"/>
<linearGradient id="SVGID_2_" gradientUnits="userSpaceOnUse" x1="0.8174" y1="192" x2="354.5" y2="192">
	<stop  offset="0" style="stop-color:#EC1F28"/>
	<stop  offset="1" style="stop-color:#A81E23"/>
</linearGradient>
<path class="st1" d="M322,244.5c-15.16,0-27.93,10.44-31.5,24.5h-19.89l-46-46H192v-23h51.5c1.33,5.26,3.97,10.14,7.75,14.18
	c6.13,6.56,14.78,10.32,23.75,10.32c17.92,0,32.5-14.58,32.5-32.5s-14.58-32.5-32.5-32.5c-15.52,0-28.52,10.93-31.73,25.5H192v-25
	h32.65l46-47h19.61c1.24,5.64,3.96,10.88,7.98,15.18c6.13,6.56,14.78,10.32,23.75,10.32c17.92,0,32.5-14.58,32.5-32.5
	S339.92,73.5,322,73.5c-15.16,0-27.93,10.44-31.5,24.5h-26.15l-46,47H192V99h31.61l38.73-38.73c5.22,3.37,11.36,5.23,17.66,5.23
	c17.92,0,32.5-14.58,32.5-32.5S297.92,0.5,280,0.5S247.5,15.08,247.5,33c0,5.84,1.56,11.49,4.46,16.43L217.39,84H192V52.5
	c0-12.97-11.91-36.66-31.31-45.79c-0.13-0.06-0.25-0.11-0.38-0.17c-23.81-9.64-41.42-5.1-52.01,0.41
	c-14.77,7.69-23.86,21.3-26.09,30.75c-4.97,19.3-3.04,35.92,5.75,49.38c2.78,4.26,6.05,7.88,9.53,10.95
	c-2.51,1.02-4.9,2.29-7.15,3.81c-9.35,6.33-14.4,16.01-13.84,26.54c1.25,23.83,23.19,31.41,24.12,31.72
	c3.93,1.31,8.18-0.81,9.49-4.74c1.31-3.93-0.81-8.18-4.74-9.49c-0.13-0.04-13.16-4.54-13.88-18.28c-0.28-5.23,2.31-9.97,7.27-13.34
	c4.31-2.92,11.04-4.94,19.15-3.95c7.56,3.01,13.35,4,13.88,4.08c3.7,0.6,7.28-1.62,8.37-5.21c1.1-3.59-0.62-7.43-4.03-9
	c-4.71-2.17-9.49-3.66-14.23-4.46c-7.16-3.06-15.85-8.3-21.44-16.92c-6.36-9.79-7.61-22.39-3.71-37.43
	c0.02-0.06,0.03-0.13,0.05-0.19c1.15-4.98,7.17-15.07,18.42-20.92c11.27-5.86,24.48-5.83,39.26,0.11
	C168.46,27.06,177,44.94,177,52.5V53c0,8.27-6.73,15-15,15c-5.6,0-10.69-3.08-13.29-8.04c-1.92-3.67-6.46-5.08-10.13-3.15
	c-3.67,1.93-5.08,6.46-3.15,10.13C140.63,76.84,150.81,83,162,83c5.46,0,10.58-1.47,15-4.04v79.89
	c-11.06-3.24-25.45-3.44-35.64,8.21c-2.77,3.16-5.8,7.07-9.02,11.2c-6.12,7.88-13.28,17.07-21.6,25.17
	c-7.48-7.84-21.95-20.95-41.41-28.88c-3.83-1.56-8.21,0.28-9.78,4.12c-1.56,3.84,0.28,8.21,4.12,9.78
	c16.36,6.66,28.91,17.85,35.58,24.71c-7.12,5.09-14.95,8.94-23.55,10.46c-4.08,0.72-6.8,4.61-6.08,8.69c0.64,3.64,3.81,6.2,7.38,6.2
	c0.43,0,0.87-0.04,1.31-0.12c13.14-2.32,24.58-8.74,34.47-16.74c0.81-0.26,1.6-0.65,2.31-1.21c0.91-0.71,1.61-1.58,2.1-2.55
	c10.99-9.83,19.9-21.29,27-30.41c3.21-4.13,5.98-7.7,8.46-10.53c7.11-8.13,18.53-4.7,24.36-2.15v131.49
	c-3.2-1.45-6.76-2.27-10.5-2.27c-11.9,0-22.38,8.43-24.91,20.05c-0.88,4.05,1.68,8.04,5.73,8.93c4.05,0.88,8.04-1.68,8.93-5.73
	c1.04-4.78,5.36-8.25,10.26-8.25c5.79,0,10.5,4.71,10.5,10.5c0,6.56-3.49,19.64-13.11,28.76c-7.47,7.09-17.23,10.36-28.99,9.75
	c-14.26-0.75-26.02-7.49-33.09-18.99c-6.75-10.97-8.1-24.9-3.44-35.5c9.98-22.68,34.08-40.61,34.56-40.96
	c3.34-2.44,4.07-7.14,1.63-10.48c-2.45-3.34-7.14-4.07-10.48-1.63c-0.58,0.42-7.89,5.83-16.45,14.58l-22.74-7.63
	c-3.93-1.32-8.18,0.8-9.5,4.72c-1.32,3.93,0.8,8.18,4.72,9.5l16.82,5.64c-4.67,6.05-9.06,12.87-12.3,20.22
	c-1.6,3.63-2.71,7.48-3.36,11.44c-12.33-0.7-21.61-4.87-28.24-12.69c-17.96-21.18-10.26-61.88-10.18-62.28
	c0.47-2.4-0.25-4.87-1.94-6.64c-18.15-18.99-26.53-38.33-24.9-57.48c2.63-30.96,30.65-52.1,30.93-52.3
	c2.54-1.87,3.64-5.12,2.75-8.14c-11.67-40,8.57-48.54,9.44-48.88l-0.11,0.04l-5.04-14.13c-0.97,0.35-9.66,3.69-16.11,14.12
	c-7.53,12.19-8.83,28.39-3.88,48.22c-9.08,7.92-30.28,29.45-32.91,59.65c-1.97,22.7,6.91,45.05,26.42,66.49
	c-1.72,11.96-5.04,48.4,14.06,70.97c9.43,11.14,22.68,17.18,39.44,18.03c0.96,7.95,3.65,15.86,8.02,22.97
	c9.74,15.82,25.75,25.09,45.08,26.1c1.18,0.06,2.34,0.09,3.49,0.09c14.36,0,26.97-4.78,36.61-13.94
	c12.22-11.6,17.79-28.68,17.79-39.65V299h26.34l34.05,34.88c-3.1,4.98-4.89,10.84-4.89,17.12c0,8.27,3.11,16.14,8.75,22.18
	c6.13,6.56,14.78,10.32,23.75,10.32c17.92,0,32.5-14.58,32.5-32.5s-14.58-32.5-32.5-32.5c-6.22,0-12.03,1.76-16.98,4.8L224.66,284
	H192v-46h26.39l46,46h25.87c1.24,5.64,3.96,10.88,7.98,15.18c6.13,6.56,14.78,10.32,23.75,10.32c17.92,0,32.5-14.58,32.5-32.5
	S339.92,244.5,322,244.5z M275,174.5c9.65,0,17.5,7.85,17.5,17.5s-7.85,17.5-17.5,17.5c-4.9,0-9.44-1.97-12.79-5.56
	c-3.04-3.25-4.71-7.49-4.71-11.94C257.5,182.35,265.35,174.5,275,174.5z M322,88.5c9.65,0,17.5,7.85,17.5,17.5s-7.85,17.5-17.5,17.5
	c-4.9,0-9.44-1.97-12.79-5.56c-3.04-3.25-4.71-7.49-4.71-11.94C304.5,96.35,312.35,88.5,322,88.5z M280,15.5
	c9.65,0,17.5,7.85,17.5,17.5s-7.85,17.5-17.5,17.5c-4.9,0-9.44-1.97-12.79-5.56c-3.04-3.25-4.71-7.49-4.71-11.94
	C262.5,23.35,270.35,15.5,280,15.5z M297.5,351c0,9.65-7.85,17.5-17.5,17.5c-4.9,0-9.44-1.97-12.79-5.56
	c-3.04-3.25-4.71-7.49-4.71-11.94c0-9.65,7.85-17.5,17.5-17.5S297.5,341.35,297.5,351z M322,294.5c-4.9,0-9.44-1.97-12.79-5.56
	c-3.04-3.25-4.71-7.49-4.71-11.94c0-9.65,7.85-17.5,17.5-17.5s17.5,7.85,17.5,17.5S331.65,294.5,322,294.5z"/>
</svg>
