<?xml version="1.0" encoding="utf-8"?>
<!-- Generator: Adobe Illustrator 24.1.2, SVG Export Plug-In . SVG Version: 6.00 Build 0)  -->
<svg version="1.1" id="Layer_1" xmlns="http://www.w3.org/2000/svg" xmlns:xlink="http://www.w3.org/1999/xlink" x="0px" y="0px"
	 viewBox="0 0 226 367" style="enable-background:new 0 0 226 367;" xml:space="preserve">
<style type="text/css">
	.st0{fill:url(#SVGID_1_);}
	.st1{fill:url(#SVGID_2_);}
	.st2{fill:url(#SVGID_3_);}
</style>
<g>
	<linearGradient id="SVGID_1_" gradientUnits="userSpaceOnUse" x1="31.027" y1="25.4326" x2="137.8531" y2="256.6935">
		<stop  offset="0" style="stop-color:#EC1F28"/>
		<stop  offset="1" style="stop-color:#A81E23"/>
	</linearGradient>
	<path class="st0" d="M226,83.25c0-46.04-37.46-83.5-83.5-83.5S59,37.21,59,83.25c0,35.28,22,65.5,53,77.71v31.79H67.6l-22.25-27.02
		c3.53-4.38,5.65-9.94,5.65-15.98c0-14.06-11.44-25.5-25.5-25.5S0,135.69,0,149.75c0,6.49,2.44,12.67,6.86,17.4
		c4.81,5.14,11.6,8.1,18.64,8.1c4.04,0,7.87-0.95,11.27-2.63l25.64,31.13H112h7.5h7.5v-38.47c5.03,0.95,10.2,1.47,15.5,1.47
		s10.47-0.52,15.5-1.47V324.8l-15.5,21.23L127,324.8v-35.13h-15v0.08H66.45l-25.33,29.86c-3.72-2.13-8.03-3.36-12.62-3.36
		c-14.06,0-25.5,11.44-25.5,25.5c0,6.49,2.44,12.67,6.86,17.4c4.81,5.14,11.6,8.1,18.64,8.1c14.06,0,25.5-11.44,25.5-25.5
		c0-5.5-1.75-10.59-4.72-14.75l22.27-26.25H112v26h0.02c-0.11,1.7,0.34,3.44,1.42,4.92l23,31.5c1.41,1.93,3.66,3.08,6.06,3.08
		s4.65-1.14,6.06-3.08l23-31.5c1.08-1.48,1.54-3.23,1.42-4.92H173V160.96C204,148.75,226,118.53,226,83.25z M17.82,156.92
		c-1.82-1.95-2.82-4.5-2.82-7.17c0-5.79,4.71-10.5,10.5-10.5s10.5,4.71,10.5,10.5s-4.71,10.5-10.5,10.5
		C22.56,160.25,19.83,159.07,17.82,156.92z M28.5,352.25c-2.94,0-5.67-1.18-7.68-3.33c-1.82-1.95-2.82-4.5-2.82-7.17
		c0-5.79,4.71-10.5,10.5-10.5s10.5,4.71,10.5,10.5S34.29,352.25,28.5,352.25z M142.5,151.75c-37.77,0-68.5-30.73-68.5-68.5
		s30.73-68.5,68.5-68.5S211,45.48,211,83.25S180.27,151.75,142.5,151.75z"/>
	<linearGradient id="SVGID_2_" gradientUnits="userSpaceOnUse" x1="109.8416" y1="-10.9741" x2="216.6676" y2="220.2868">
		<stop  offset="0" style="stop-color:#EC1F28"/>
		<stop  offset="1" style="stop-color:#A81E23"/>
	</linearGradient>
	<path class="st1" d="M142.5,31.75c-16.82,0-30.5,13.68-30.5,30.5c0,4.14,3.36,7.5,7.5,7.5s7.5-3.36,7.5-7.5
		c0-8.55,6.95-15.5,15.5-15.5S158,53.7,158,62.25c0,4.14,3.36,7.5,7.5,7.5s7.5-3.36,7.5-7.5C173,45.43,159.32,31.75,142.5,31.75z"/>
	<linearGradient id="SVGID_3_" gradientUnits="userSpaceOnUse" x1="-19.7943" y1="48.9085" x2="87.0318" y2="280.1693">
		<stop  offset="0" style="stop-color:#EC1F28"/>
		<stop  offset="1" style="stop-color:#A81E23"/>
	</linearGradient>
	<path class="st2" d="M127,267.9v-43.5h-15v15.35H58.28c-2.71-11.17-12.79-19.5-24.78-19.5c-14.06,0-25.5,11.44-25.5,25.5
		c0,6.49,2.44,12.67,6.86,17.4c4.81,5.14,11.6,8.1,18.64,8.1c12.35,0,22.67-8.83,25-20.5H112v17.15H127z M33.5,256.25
		c-2.94,0-5.67-1.18-7.68-3.33c-1.82-1.95-2.82-4.5-2.82-7.17c0-5.79,4.71-10.5,10.5-10.5s10.5,4.71,10.5,10.5
		S39.29,256.25,33.5,256.25z"/>
</g>
</svg>
